<svg width="279" height="100" viewBox="0 0 279 100" fill="none" xmlns="http://www.w3.org/2000/svg">
<path d="M21.5097 16.3693C16.1256 18.6311 10.2066 25.021 8.33724 33.0416C5.9698 43.2041 15.8219 47.5015 16.6299 46.0925C17.581 44.4368 14.8646 43.8769 14.3054 38.6041C13.5827 31.7939 16.7375 24.1842 20.7078 20.8453C21.4459 20.225 21.4108 21.0884 21.4108 22.6854C21.4108 25.5413 21.2535 51.1786 21.2535 56.5291C21.2535 63.7691 20.9556 66.0553 20.4204 68.3144C19.8782 70.6038 19.0065 72.1507 19.667 72.7465C20.405 73.4131 23.5559 71.8276 25.3801 69.2726C27.5675 66.2082 28.3331 62.5281 28.4706 58.5315C28.6367 53.7138 28.6296 46.0691 28.6367 41.7086C28.6433 37.7093 28.7038 25.9987 28.5668 18.9587C28.5332 17.2319 23.7614 15.4203 21.5095 16.3672L21.5097 16.3693ZM212.7 50.2517C212.526 54.0155 211.696 56.9575 210.666 59.0326C208.671 63.05 204.532 64.2974 202.775 58.5223C201.817 55.3743 201.772 50.1169 202.461 45.7239C203.162 41.2488 205.119 37.869 208.359 38.1738C211.556 38.4751 213.052 42.6085 212.7 50.2515V50.2517ZM158.815 73.6036C158.771 79.8575 157.79 85.3409 155.687 86.9335C152.704 89.1917 148.695 87.4978 149.525 82.9343C150.26 78.896 153.734 74.7718 158.823 69.7328C158.823 69.7328 158.834 70.8819 158.815 73.6036H158.815ZM158 50.2152C157.818 53.6434 156.932 57.0872 155.966 59.0331C153.972 63.0504 149.802 64.3063 148.075 58.5228C146.893 54.5713 147.176 49.457 147.761 46.2345C148.519 42.0535 150.358 38.1747 153.659 38.1747C156.87 38.1747 158.452 41.7091 158 50.2155V50.2152ZM126.784 50.1628C126.588 53.7935 125.883 56.8286 124.75 59.0331C122.701 63.0228 118.647 64.2881 116.859 58.5228C115.57 54.3656 116.009 48.6971 116.545 45.635C117.341 41.091 119.333 37.8694 122.444 38.1747C125.639 38.488 127.192 42.609 126.784 50.1631V50.1628ZM269.839 54.4037C269.058 54.4037 268.702 55.2116 268.407 56.5717C267.384 61.3005 266.309 62.3683 264.923 62.3683C263.374 62.3683 261.982 60.0268 261.624 55.3394C261.343 51.6537 261.388 44.8681 261.748 38.1183C261.822 36.7315 261.44 35.3593 257.734 34.008C256.139 33.4268 253.821 32.5709 252.666 35.3673C249.405 43.2675 248.129 49.5397 247.829 52.0876C247.813 52.2195 247.652 52.2464 247.624 51.9383C247.432 49.8976 247.005 46.1892 246.951 38.3978C246.941 36.8777 246.62 35.5837 244.948 34.5243C243.864 33.8369 240.569 32.6212 239.383 34.0675C238.355 35.2504 237.165 38.4338 235.929 42.2073C234.924 45.2743 234.224 47.349 234.224 47.349C234.224 47.349 234.237 39.0737 234.249 35.9347C234.254 34.7505 233.445 34.3559 233.201 34.2844C232.102 33.9644 229.938 33.4299 229.019 33.4299C227.886 33.4299 227.608 34.0658 227.608 34.9923C227.608 35.1136 227.429 45.8875 227.429 53.4211C227.429 53.7484 227.429 54.1054 227.433 54.4847C226.806 57.9472 224.772 62.6475 222.561 62.6475C220.347 62.6475 219.303 60.6825 219.303 51.7012C219.303 46.4618 219.46 44.1835 219.537 40.3941C219.581 38.2114 219.668 36.5352 219.663 36.1549C219.647 34.9884 217.637 34.4005 216.702 34.1833C215.762 33.9642 214.945 33.8793 214.308 33.9157C213.406 33.9668 212.767 34.561 212.767 35.3781C212.767 35.8163 212.772 36.6494 212.772 36.6494C211.61 34.8165 209.74 33.5407 208.497 33.171C205.147 32.1725 201.651 33.0572 199.014 36.7601C196.919 39.7022 195.655 43.0344 195.158 47.822C194.795 51.322 194.913 54.8713 195.559 57.8729C194.779 61.2599 193.33 62.6475 191.743 62.6475C189.439 62.6475 187.769 58.8738 187.963 52.3473C188.091 48.0546 188.947 45.042 189.882 40.6838C190.281 38.8259 189.957 37.8532 189.144 36.9209C188.398 36.066 186.81 35.6292 184.526 36.1664C182.899 36.5495 180.573 36.9614 178.445 37.2778C178.445 37.2778 178.574 36.7636 178.679 35.8572C179.233 31.1034 174.085 31.4891 172.443 33.0075C171.463 33.914 170.796 34.9831 170.542 36.9054C170.141 39.9559 172.62 41.3948 172.62 41.3948C171.806 45.1314 169.813 50.0126 167.754 53.5417C166.652 55.4325 165.808 56.8336 164.719 58.323C164.715 57.7684 164.712 57.2139 164.71 56.6619C164.685 48.8061 164.79 42.6233 164.836 40.3948C164.88 38.2121 164.968 36.5804 164.963 36.2001C164.95 35.3469 164.454 35.0247 163.421 34.6168C162.508 34.256 161.429 34.0063 160.309 33.9192C158.896 33.8085 158.044 34.5608 158.067 35.4504C158.071 35.6184 158.071 36.6498 158.071 36.6498C156.909 34.8168 155.039 33.541 153.795 33.1713C150.445 32.1733 146.95 33.058 144.313 36.7604C142.218 39.7025 140.846 43.831 140.457 47.7858C140.095 51.4717 140.162 54.6041 140.655 57.2427C140.123 59.8849 138.591 62.6479 136.859 62.6479C134.646 62.6479 133.386 60.6828 133.386 51.7015C133.386 46.4621 133.543 44.1839 133.62 40.3948C133.664 38.2121 133.751 36.5356 133.746 36.1556C133.73 34.9892 131.72 34.4013 130.785 34.1836C129.806 33.9565 128.961 33.873 128.313 33.9209C127.457 33.9849 126.855 34.7541 126.855 35.3278V36.6498C125.693 34.8168 123.823 33.541 122.58 33.1713C119.23 32.1733 115.753 33.0722 113.097 36.7604C111.365 39.1653 109.963 41.8314 109.241 47.7334C109.033 49.439 108.94 51.0361 108.952 52.5289C108.262 56.7682 105.211 61.6543 102.716 61.6543C101.255 61.6543 99.8645 58.8118 99.8645 52.7538C99.8645 44.6842 100.362 33.1949 100.446 32.0875C100.446 32.0875 103.599 32.0338 104.21 32.0266C105.783 32.0093 107.207 32.0466 109.302 31.9391C110.352 31.8853 111.365 28.1012 110.28 27.6328C109.789 27.4209 106.315 27.2351 104.938 27.2058C103.78 27.1795 100.557 26.9401 100.557 26.9401C100.557 26.9401 100.846 19.314 100.913 18.5084C100.971 17.8369 100.105 17.4912 99.6086 17.2815C98.4016 16.7691 97.3217 16.5238 96.0416 16.259C94.2732 15.8929 93.4709 16.251 93.3141 17.7489C93.0781 20.0223 92.9559 26.681 92.9559 26.681C91.6582 26.681 87.2251 26.4264 85.9269 26.4264C84.7208 26.4264 83.4191 31.6321 85.0866 31.696C87.0051 31.7707 90.3485 31.8351 92.565 31.9022C92.565 31.9022 92.4662 43.5809 92.4662 47.1864C92.4662 47.57 92.4696 47.9394 92.4702 48.2978C91.2504 54.6788 86.9537 58.1257 86.9537 58.1257C87.8765 53.9043 85.9916 50.7342 82.5964 48.0508C81.3456 47.0619 78.8762 45.1898 76.1133 43.1384C76.1133 43.1384 77.7135 41.5556 79.1326 38.3713C80.1381 36.1157 80.1815 33.5344 77.7135 32.9652C73.6356 32.0241 70.2732 35.0297 69.2703 38.2384C68.4932 40.7242 68.9077 42.5687 70.4299 44.4848C70.5411 44.6248 70.6615 44.7678 70.7859 44.9118C69.8654 46.6924 68.6008 49.0898 67.5298 50.9489C64.557 56.1105 62.3113 60.1933 60.6141 60.1933C59.2574 60.1933 59.2756 56.0482 59.2756 52.1673C59.2756 48.8216 59.5218 43.7916 59.7184 38.5837C59.7835 36.8614 58.9254 35.8802 57.4868 34.9915C56.6128 34.4516 54.7474 33.39 53.667 33.39C52.0499 33.39 47.3845 33.6109 42.9763 46.408C42.4208 48.0209 41.3294 50.96 41.3294 50.96L41.4233 35.5709C41.4233 35.2101 41.2318 34.8613 40.7934 34.6227C40.0505 34.2179 38.0665 33.39 36.3023 33.39C35.4618 33.39 35.0423 33.7824 35.0423 34.5645L34.8884 58.6407C34.8884 60.4701 34.936 62.6042 35.1162 63.5376C35.2958 64.4721 35.5866 65.2324 35.9469 65.6847C36.3067 66.1362 36.7228 66.4806 37.4089 66.6227C38.0475 66.7547 41.5442 67.2053 41.7259 65.8642C41.9437 64.2571 41.952 62.5187 43.7881 56.0354C46.6466 45.9418 50.3735 41.017 52.1255 39.268C52.4319 38.9623 52.7816 38.9441 52.7648 39.4444C52.69 41.6573 52.427 47.1869 52.2499 51.8847C51.7753 64.4565 54.0542 66.7867 57.3108 66.7867C59.8023 66.7867 63.3144 64.3023 67.0792 58.0133C69.4264 54.0941 71.7053 50.2512 73.3427 47.4815C74.4837 48.5416 75.7642 49.6825 77.0438 50.9014C80.0175 53.7338 80.9938 56.4252 80.346 58.9785C79.8506 60.9304 77.9847 62.9419 74.6639 60.9868C73.696 60.4164 73.2829 59.9757 72.3097 59.3326C71.7868 58.9871 70.9885 58.8839 70.5098 59.2458C69.2665 60.1866 68.5554 61.3832 68.1494 62.8647C67.7545 64.3063 69.193 65.0683 70.6843 65.7348C71.9683 66.3085 74.7281 66.8283 76.4881 66.8875C83.3458 67.1177 88.8393 63.5646 92.6635 54.3993C93.348 62.3146 96.2614 66.7938 101.323 66.7938C104.707 66.7938 108.1 62.4038 109.584 58.0852C110.01 59.8456 110.64 61.3765 111.455 62.671C115.355 68.8729 122.922 67.5381 126.722 62.2716C127.898 60.6443 128.076 60.0596 128.076 60.0596C128.631 65.0324 132.621 66.7698 134.906 66.7698C137.464 66.7698 140.106 65.5558 141.958 61.3722C142.175 61.8262 142.412 62.2598 142.671 62.6709C146.571 68.8728 154.137 67.5379 157.938 62.2715C158.118 62.0245 158.273 61.8004 158.409 61.5992L158.52 64.8656C158.52 64.8656 156.352 66.8618 155.021 68.0863C149.163 73.48 144.709 77.5721 144.381 82.3374C143.961 88.4135 148.871 90.6718 152.586 90.9677C156.531 91.2819 159.909 89.0948 161.986 86.034C163.812 83.3399 165.008 77.5414 164.92 71.8145C164.885 69.5212 164.828 66.6053 164.783 63.4797C166.842 61.0801 169.161 58.0474 171.297 54.4974C173.625 50.6287 176.119 45.4334 177.397 41.3901C177.397 41.3901 179.564 41.4088 181.877 41.2568C182.617 41.2084 182.83 41.3599 182.693 41.9043C182.528 42.5619 179.77 53.2345 182.287 60.3443C184.009 65.2113 187.892 66.7772 190.194 66.7772C192.888 66.7772 195.466 64.7349 196.848 61.7022C197.014 62.0403 197.188 62.3675 197.378 62.6695C201.279 68.8715 208.818 67.5286 212.646 62.2702C213.51 61.0838 214 60.0581 214 60.0581C214.821 65.2047 218.809 66.7946 221.093 66.7946C223.473 66.7946 225.731 65.8156 227.563 61.4649C227.64 63.3805 227.76 64.9469 227.951 65.4407C228.067 65.7427 228.743 66.1219 229.235 66.305C231.411 67.115 233.631 66.732 234.453 66.5653C235.022 66.4498 235.465 65.9917 235.526 64.8087C235.685 61.7027 235.588 56.4841 236.526 52.6057C238.101 46.0968 239.57 43.5719 240.267 42.322C240.657 41.6216 241.097 41.5061 241.113 42.2473C241.146 43.747 241.22 48.1511 241.83 54.0681C242.278 58.4199 242.877 60.9921 243.337 61.8062C244.65 64.1342 246.271 64.2444 247.592 64.2444C248.432 64.2444 250.188 64.0115 250.031 62.53C249.954 61.8079 250.088 57.3452 251.641 50.9327C252.655 46.7451 254.346 42.9613 254.955 41.5781C255.18 41.0679 255.285 41.4701 255.281 41.5484C255.153 44.4323 254.865 53.8652 256.035 59.0242C257.622 66.013 262.213 66.7951 263.813 66.7951C267.228 66.7951 270.021 64.188 270.962 57.328C271.188 55.6772 270.853 54.4024 269.847 54.4024" fill="#FAFAFA"/>
</svg>
